# xmcd CD database file
#
# Track frame offsets:
#	150
#	1763
#	21063
#	39276
#	56074
#	78128
#	102207
#	115272
#	130718
#	153161
#	170192
#	187096
#	204574
#	216995
#	228464
#	253684
#	266992
#	280453
#	297509
#	315957
#
# Disc length: 4374 seconds
#
# Revision: 0
# Processed by: cddbd v1.5PL3 Copyright (c) Steve Scherf et al.
# Submitted via: CDex 1.51
#
DISCID=1d111414
DTITLE=James Cotton - Midnight Creeper Disc 1
DYEAR=2002
DGENRE=Blues
TTITLE0=Intro
TTITLE1=Honky Tonk
TTITLE2=Woke Up This Morning
TTITLE3=Black Night
TTITLE4=Feelin' Good
TTITLE5=Mean Old World
TTITLE6=Mother in Law Blues
TTITLE7=Every Day I Have the Blues
TTITLE8=Tramp
TTITLE9=Nine Below Zero
TTITLE10=That's Alright
TTITLE11=Rock Me Baby
TTITLE12=Rockett 88
TTITLE13=I Got You (I Feel Good)
TTITLE14=There Is Something on Your Mind
TTITLE15=Money Honey
TTITLE16=I Don't Know
TTITLE17=Good Time Charlie
TTITLE18=It Ain't Right
TTITLE19=Knock on Wood
EXTD=YEAR: 2002
EXTT0=
EXTT1=
EXTT2=
EXTT3=
EXTT4=
EXTT5=
EXTT6=
EXTT7=
EXTT8=
EXTT9=
EXTT10=
EXTT11=
EXTT12=
EXTT13=
EXTT14=
EXTT15=
EXTT16=
EXTT17=
EXTT18=
EXTT19=
PLAYORDER=
